<svg width="792" height="687" viewBox="0 0 792 687" fill="none" xmlns="http://www.w3.org/2000/svg">
<path d="M584.396 214.85L110.87 462.137L171.153 577.571L644.678 330.285L584.396 214.85Z" fill="#FFE500"/>
<path d="M616.845 276.826L143.32 524.112L171.212 577.523L644.737 330.236L616.845 276.826Z" fill="#EBC508"/>
<path d="M170.506 577.705L119.592 604.296L97.3962 584.464C89.4762 577.392 82.8036 569.147 77.5685 560.083C71.6245 549.799 67.5338 538.461 65.5697 526.577L59.3564 488.961L110.27 462.37L142.75 524.561L170.506 577.705Z" fill="#FF7BAC"/>
<path d="M584.401 214.83L732.996 205.128L644.747 330.217L584.401 214.83Z" fill="#FFDEAC"/>
<path d="M709.283 206.676L719.148 224.758L732.996 205.128L709.283 206.676Z" fill="#333333"/>
<path d="M170.506 577.705L119.592 604.296L97.3963 584.464C89.4763 577.392 82.8037 569.147 77.5686 560.083L142.75 524.561L170.506 577.705Z" fill="#ED1E79"/>
<path d="M714.467 216.176L616.853 276.808L644.747 330.216L719.148 224.758L714.467 216.176Z" fill="#FFDE92"/>
<path d="M732.996 205.128L714.467 216.176L719.148 224.758L732.996 205.128Z" fill="#1A1A1A"/>
<path d="M184.932 421.74L235.264 354.024L267.34 383.724L334.83 389.407L395.268 387.882L433.858 371.052L469.894 354.024H529.294L537.147 387.882L549.49 435.006L535.159 478.368L456.568 474.776L419.602 470.804L401.782 510.048L367.211 518.364L319.936 486.288H276.408L216.786 490.347L184.932 474.776V438.625V421.74Z" fill="#333333" stroke="#4D4D4D" stroke-width="6" stroke-miterlimit="10" stroke-linejoin="round"/>
<path d="M188.603 354.42L276.412 268.413L324.273 263.558L412.565 284.185L466.686 323.009L530.838 311.482L584.298 285.084L595.469 316.943L651.222 375.606L591.684 423.522L538.956 440.55L423.522 405.9L388.872 410.256L324.273 401.714L268.346 404.68L199.794 405.9L143.376 400.554L140.952 367.666L188.603 354.42Z" fill="#1B143C" stroke="#1B1464" stroke-miterlimit="10"/>
<path d="M560.288 363.009C545.589 320.82 567.876 274.698 610.07 259.998C652.259 245.298 698.381 267.585 713.081 309.779C722.589 337.071 716.815 367.366 697.934 389.248C684.763 406.502 655.356 411.278 650.81 435.117C628.856 440.099 605.817 435.707 587.236 423C591.778 399.156 566.189 383.898 560.288 363.009Z" fill="url(#paint0_radial)"/>
<path d="M578.552 465.518C597.766 477.311 621.027 480.55 642.732 474.456L641.821 479.224L623.502 488.91L591.715 482.851L578.247 467.106L578.552 465.518Z" fill="url(#paint1_linear)"/>
<path d="M586.824 422.916C606.038 434.709 629.299 437.949 651.004 431.854L642.823 474.765C621.118 480.859 597.857 477.616 578.643 465.827L586.824 422.916Z" fill="url(#paint2_linear)"/>
<path d="M559.789 363.413C545.09 321.224 567.377 275.101 609.571 260.402C651.76 245.702 697.883 267.989 712.582 310.183C722.09 337.475 716.316 367.769 697.435 389.652C684.264 406.906 654.857 411.682 650.311 435.521L641.829 480.024L623.51 489.71L591.723 483.651L578.255 467.906L586.737 423.403C591.275 399.556 565.69 384.302 559.789 363.413Z" stroke="#1B1464" stroke-width="6" stroke-linejoin="round"/>
<path d="M268.092 275.22L284.724 411.048L263.736 404.712L234.828 239.58L268.092 275.22Z" fill="#1B1464" stroke="#1B1464" stroke-width="6" stroke-miterlimit="10" stroke-linejoin="round"/>
<path d="M114.84 264.924L141.372 268.092L168.835 296.624L163.152 312.444L114.84 264.924Z" fill="#1B1464" stroke="#1B1464" stroke-width="6" stroke-miterlimit="10" stroke-linejoin="round"/>
<path d="M220.968 409.464L244.332 418.572L284.724 411.048L263.736 404.712L220.968 409.464Z" fill="#1B1464" stroke="#1B1464" stroke-width="6" stroke-miterlimit="10" stroke-linejoin="round"/>
<path d="M180.972 391.644L215.234 395.624L196.02 349.272L180.972 391.644Z" fill="#1B1464" stroke="#1B1464" stroke-width="6" stroke-miterlimit="10" stroke-linejoin="round"/>
<path d="M105.732 437.976L129.096 445.896L169.092 437.184L151.272 428.076L105.732 437.976Z" fill="#1B1464" stroke="#1B1464" stroke-width="6" stroke-miterlimit="10" stroke-linejoin="round"/>
<path d="M169.092 437.184L161.833 374.992L141.372 357.192L151.272 428.076L169.092 437.184Z" fill="#1B1464" stroke="#1B1464" stroke-width="6" stroke-miterlimit="10" stroke-linejoin="round"/>
<path d="M105.732 437.976L151.272 428.076L141.372 357.192L161.833 374.992L180.972 391.644L196.02 349.272L215.234 395.624L220.968 409.464L263.736 404.712L234.828 239.58L186.912 246.312L168.835 296.624L163.152 312.444L114.84 264.924L73.26 278.784L105.732 437.976Z" fill="white" stroke="#1B1464" stroke-width="6" stroke-miterlimit="10" stroke-linejoin="round"/>
<path d="M380.16 280.764L373.032 238.788L374.22 278.784L377.784 302.148L380.16 280.764Z" fill="#1B1464" stroke="#1B1464" stroke-width="6" stroke-miterlimit="10" stroke-linejoin="round"/>
<path d="M370.656 299.772L379.368 323.136L378.18 357.192L367.092 338.976L370.656 299.772Z" fill="#1B1464" stroke="#1B1464" stroke-width="6" stroke-miterlimit="10" stroke-linejoin="round"/>
<path d="M379.368 379.764L369.072 360.756L365.112 402.732L376.992 411.444L379.368 379.764Z" fill="#1B1464" stroke="#1B1464" stroke-width="6" stroke-miterlimit="10" stroke-linejoin="round"/>
<path d="M268.092 400.752L278.388 412.236L376.992 411.444L365.112 402.732L268.092 400.752Z" fill="#1B1464" stroke="#1B1464" stroke-width="6" stroke-miterlimit="10" stroke-linejoin="round"/>
<path d="M311.652 338.976L321.148 356.816L311.256 356.004L311.652 338.976Z" fill="#1B1464" stroke="#1B1464" stroke-width="6" stroke-miterlimit="10" stroke-linejoin="round"/>
<path d="M302.544 297.792L311.434 298.049L302.544 274.032V297.792Z" fill="#1B1464" stroke="#1B1464" stroke-width="6" stroke-miterlimit="10" stroke-linejoin="round"/>
<path d="M377.784 302.148L311.434 298.049L302.544 274.032L374.22 278.784L377.784 302.148Z" fill="#1B1464" stroke="#1B1464" stroke-width="6" stroke-miterlimit="10" stroke-linejoin="round"/>
<path d="M378.18 357.192L323.136 359.568L321.148 356.816L311.652 338.976H367.092L378.18 357.192Z" fill="#1B1464" stroke="#1B1464" stroke-width="6" stroke-miterlimit="10" stroke-linejoin="round"/>
<path d="M373.032 238.788H263.736L268.092 400.752L365.112 402.732L369.072 360.756L321.148 356.816L311.256 356.004L311.652 338.976H367.092L370.656 299.772L311.434 298.049L302.544 297.792V274.032L374.22 278.784L373.032 238.788Z" fill="white" stroke="#1B1464" stroke-width="6" stroke-miterlimit="10" stroke-linejoin="round"/>
<path d="M500.148 248.688L524.7 244.332L466.092 314.028L460.548 297.792L500.148 248.688Z" fill="#1B1464" stroke="#1B1464" stroke-width="6" stroke-miterlimit="10" stroke-linejoin="round"/>
<path d="M535.392 419.76L514.008 428.472L479.556 416.196L493.416 406.296L535.392 419.76Z" fill="#1B1464" stroke="#1B1464" stroke-width="6" stroke-miterlimit="10" stroke-linejoin="round"/>
<path d="M479.556 416.196L487.183 357.081L502.524 346.104L493.416 406.296L479.556 416.196Z" fill="#1B1464" stroke="#1B1464" stroke-width="6" stroke-miterlimit="10" stroke-linejoin="round"/>
<path d="M453.816 380.952L445.104 383.328L429.66 346.104L431.244 333.432L453.816 380.952Z" fill="#1B1464" stroke="#1B1464" stroke-width="6" stroke-miterlimit="10" stroke-linejoin="round"/>
<path d="M422.928 407.088L414.454 417.384L373.503 406.296L372.24 396L422.928 407.088Z" fill="#1B1464" stroke="#1B1464" stroke-width="6" stroke-miterlimit="10" stroke-linejoin="round"/>
<path d="M394.416 236.412L437.976 233.244L457.863 290.383L466.092 314.028L524.7 244.332L563.904 254.232L535.392 419.76L493.416 406.296L502.524 346.104L487.183 357.081L453.816 380.952L431.244 333.432L422.928 407.088L372.24 396L394.416 236.412Z" fill="white" stroke="#1B1464" stroke-width="6" stroke-miterlimit="10" stroke-linejoin="round"/>
<path d="M298.98 487.476C298.83 473.707 294.371 456.762 284.688 436.99C283.73 435.034 282.752 433.054 281.754 431.046C274.198 415.836 265.807 411.056 261.954 407.682C252.45 399.366 211.662 381.942 191.07 383.13C170.478 384.318 160.182 394.614 160.182 394.614L193.209 535.768L224.334 553.806C224.334 553.806 249.678 542.718 256.41 538.758C263.142 534.798 271.062 529.254 284.526 517.77C297.99 506.286 299.075 496.323 298.98 487.476ZM206.7 439.267C207.686 439.097 208.724 438.915 209.484 438.768C219.162 436.907 224.465 446.763 226.71 453.875C226.714 453.875 226.714 453.879 226.714 453.879C226.841 454.283 226.96 454.683 227.067 455.067C227.082 455.115 227.094 455.158 227.106 455.202C228.381 459.784 222.774 463.387 218.612 465.375C216.299 466.476 214.434 467.082 214.434 467.082L209.639 454.83L208.89 452.917L203.742 439.758C203.742 439.758 205.156 439.528 206.7 439.267Z" fill="#F2F2F2" stroke="#4D4D4D" stroke-width="6" stroke-miterlimit="10" stroke-linejoin="round"/>
<path d="M298.98 487.476C299.075 496.323 297.99 506.286 284.526 517.77C271.062 529.254 263.142 534.798 256.41 538.758C249.678 542.718 224.334 553.806 224.334 553.806L193.208 535.768C215.028 527.868 256.62 500.695 268.488 487.08C281.952 471.636 283.338 463.914 284.724 451.044C285.492 443.912 284.566 436.986 284.566 436.986C284.605 436.986 284.649 436.99 284.688 436.99C294.371 456.762 298.83 473.707 298.98 487.476Z" fill="#4D4D4D" stroke="#4D4D4D" stroke-width="6" stroke-miterlimit="10" stroke-linejoin="round"/>
<path d="M226.71 453.875C226.71 453.875 222.948 448.668 214.632 450.252L203.742 439.758C203.742 439.758 205.156 439.528 206.7 439.267C207.686 439.097 208.724 438.915 209.484 438.768C219.162 436.907 224.465 446.763 226.71 453.875Z" fill="#4D4D4D" stroke="#4D4D4D" stroke-width="6" stroke-miterlimit="10" stroke-linejoin="round"/>
<path d="M218.612 465.375C216.299 466.476 214.434 467.082 214.434 467.082L209.639 454.83L208.89 452.917L203.742 439.758L214.632 450.252L218.612 465.375Z" fill="#4D4D4D" stroke="#4D4D4D" stroke-width="6" stroke-miterlimit="10" stroke-linejoin="round"/>
<path d="M318.384 433.224L316.15 416.845C316.15 416.845 321.679 409.971 333.495 416.845C334.263 418.528 334.62 420.065 334.62 421.344C334.62 424.908 327.492 434.412 318.384 433.224ZM352.844 452.794L373.626 412.83C373.626 412.83 369.024 392.076 364.32 387.684C358.38 382.14 355.212 378.576 334.62 376.992C314.028 375.408 283.14 382.536 280.958 397.327C276.99 424.227 292.644 527.868 292.644 527.868L300.564 557.568L329.472 551.628L337.788 539.748L354.665 549.648H380.952L390.852 517.572L364.443 472.563L361.061 466.801L352.844 452.794Z" fill="#F2F2F2" stroke="#4D4D4D" stroke-width="6" stroke-miterlimit="10" stroke-linejoin="round"/>
<path d="M329.472 551.628L300.564 557.568L292.644 527.868L325.116 529.848L329.472 551.628Z" fill="#4D4D4D" stroke="#4D4D4D" stroke-width="6" stroke-miterlimit="10" stroke-linejoin="round"/>
<path d="M337.788 539.748L329.472 551.628L325.116 529.848L329.472 504.1L337.788 539.748Z" fill="#4D4D4D" stroke="#4D4D4D" stroke-width="6" stroke-miterlimit="10" stroke-linejoin="round"/>
<path d="M357.089 527.864L354.665 549.648L337.788 539.748L329.472 504.1L357.089 527.864Z" fill="#4D4D4D" stroke="#4D4D4D" stroke-width="6" stroke-miterlimit="10" stroke-linejoin="round"/>
<path d="M390.852 517.572L380.952 549.648H354.666L357.089 527.864L390.852 517.572Z" fill="#4D4D4D" stroke="#4D4D4D" stroke-width="6" stroke-miterlimit="10" stroke-linejoin="round"/>
<path d="M333.495 416.845C321.679 409.971 316.15 416.845 316.15 416.845L314.82 407.088C314.82 407.088 318.637 401.94 325.243 407.088C329.476 410.387 332.133 413.848 333.495 416.845Z" fill="#4D4D4D" stroke="#4D4D4D" stroke-width="6" stroke-miterlimit="10" stroke-linejoin="round"/>
<path d="M376.398 444.114L373.626 412.83L352.844 452.794L361.061 466.801L376.398 444.114Z" fill="#4D4D4D" stroke="#4D4D4D" stroke-width="6" stroke-miterlimit="10" stroke-linejoin="round"/>
<path d="M586.674 389.466L565.009 425.324L581.13 442.134L604.098 384.714L586.674 389.466Z" fill="#4D4D4D" stroke="#4D4D4D" stroke-width="6" stroke-miterlimit="10" stroke-linejoin="round"/>
<path d="M540.342 414.81L553.41 413.226L524.898 440.154L523.184 427.989L540.342 414.81Z" fill="#4D4D4D" stroke="#4D4D4D" stroke-width="6" stroke-miterlimit="10" stroke-linejoin="round"/>
<path d="M505.89 509.454L530.442 512.226L538.235 499.241L555.39 470.646L558.958 476.368L576.378 504.306L606.87 509.454L639.738 387.882L604.098 384.714L581.13 442.134L553.41 413.226L524.898 440.154L516.582 381.15L483.714 387.882L505.89 509.454Z" fill="#F2F2F2" stroke="#4D4D4D" stroke-width="6" stroke-miterlimit="10" stroke-linejoin="round"/>
<path d="M489.258 527.67L505.89 509.454L483.714 387.882L471.042 423.918L489.258 527.67Z" fill="#4D4D4D" stroke="#4D4D4D" stroke-width="6" stroke-miterlimit="10" stroke-linejoin="round"/>
<path d="M530.442 512.226L513.018 533.61L489.258 527.67L505.89 509.454L530.442 512.226Z" fill="#4D4D4D" stroke="#4D4D4D" stroke-width="6" stroke-miterlimit="10" stroke-linejoin="round"/>
<path d="M576.378 504.306L606.87 509.454L589.05 533.61L550.638 532.818L576.378 504.306Z" fill="#4D4D4D" stroke="#4D4D4D" stroke-width="6" stroke-miterlimit="10" stroke-linejoin="round"/>
<path d="M550.638 532.818L576.378 504.306L555.39 470.646L538.235 499.241L550.638 532.818Z" fill="#4D4D4D" stroke="#4D4D4D" stroke-width="6" stroke-miterlimit="10" stroke-linejoin="round"/>
<path d="M458.37 378.972C452.43 372.24 447.282 363.528 435.402 364.716C423.522 365.904 415.602 371.052 412.038 381.348C400.498 414.687 385.506 519.948 385.506 519.948L387.347 542.322L421.146 537.372L432.63 487.872L442.134 487.08L454.382 540.342L483.318 543.708L494.01 512.028C494.01 512.028 470.218 392.4 458.37 378.972ZM442.383 435.208L433.766 436.139L431.442 436.392C431.442 436.392 432.392 429.327 433.636 422.488C434.107 419.907 434.618 417.356 435.137 415.234C435.909 412.078 436.697 409.86 437.382 409.86C438.083 409.86 439.132 412.038 440.261 415.107C440.989 417.095 441.754 419.451 442.478 421.835C444.423 428.234 446.094 434.808 446.094 434.808L442.383 435.208Z" fill="#F2F2F2" stroke="#4D4D4D" stroke-width="6" stroke-miterlimit="10" stroke-linejoin="round"/>
<path d="M421.146 537.372L387.347 542.322L385.506 519.948L417.677 518.558L421.146 537.372Z" fill="#4D4D4D" stroke="#4D4D4D" stroke-width="6" stroke-miterlimit="10" stroke-linejoin="round"/>
<path d="M432.63 487.872L421.146 537.372L417.677 518.558L428.294 472.032L432.63 487.872Z" fill="#4D4D4D" stroke="#4D4D4D" stroke-width="6" stroke-miterlimit="10" stroke-linejoin="round"/>
<path d="M443.16 472.032L442.134 487.08L432.63 487.872L428.294 472.032H443.16Z" fill="#4D4D4D" stroke="#4D4D4D" stroke-width="6" stroke-miterlimit="10" stroke-linejoin="round"/>
<path d="M461.538 515.196L494.01 512.028L483.318 543.708L454.382 540.342L461.538 515.196Z" fill="#4D4D4D" stroke="#4D4D4D" stroke-width="6" stroke-miterlimit="10" stroke-linejoin="round"/>
<path d="M461.538 515.196L454.382 540.342L442.134 487.08L443.159 472.032L461.538 515.196Z" fill="#4D4D4D" stroke="#4D4D4D" stroke-width="6" stroke-miterlimit="10" stroke-linejoin="round"/>
<path d="M440.26 415.107L439.758 423.324C439.758 423.324 438.55 420.92 437.778 420.948C436.926 420.98 435.798 423.72 435.798 423.72L435.136 415.234C435.908 412.078 436.696 409.86 437.382 409.86C438.082 409.86 439.132 412.038 440.26 415.107Z" fill="#4D4D4D" stroke="#4D4D4D" stroke-width="6" stroke-miterlimit="10" stroke-linejoin="round"/>
<path d="M435.798 423.72L433.766 436.139L431.442 436.392C431.442 436.392 432.392 429.327 433.636 422.488C434.107 419.906 434.618 417.356 435.137 415.234L435.798 423.72Z" fill="#4D4D4D" stroke="#4D4D4D" stroke-width="6" stroke-miterlimit="10" stroke-linejoin="round"/>
<path d="M446.094 434.808L442.383 435.208L439.758 423.324L440.261 415.107C440.989 417.095 441.754 419.451 442.478 421.835C444.423 428.234 446.094 434.808 446.094 434.808Z" fill="#4D4D4D" stroke="#4D4D4D" stroke-width="6" stroke-miterlimit="10" stroke-linejoin="round"/>
<defs>
<radialGradient id="paint0_radial" cx="0" cy="0" r="1" gradientUnits="userSpaceOnUse" gradientTransform="translate(636.674 346.297) scale(86.0098)">
<stop stop-color="white"/>
<stop offset="0.052" stop-color="#FFFFEF"/>
<stop offset="0.2015" stop-color="#FFFFC5"/>
<stop offset="0.3544" stop-color="#FFFFA3"/>
<stop offset="0.5092" stop-color="#FFFF88"/>
<stop offset="0.6666" stop-color="#FFFF75"/>
<stop offset="0.828" stop-color="#FFFF6A"/>
<stop offset="1" stop-color="#FFFF66"/>
</radialGradient>
<linearGradient id="paint1_linear" x1="576.323" y1="498.727" x2="655.304" y2="496.517" gradientUnits="userSpaceOnUse">
<stop stop-color="#BBBBBB"/>
<stop offset="1" stop-color="#555555"/>
</linearGradient>
<linearGradient id="paint2_linear" x1="582.582" y1="445.366" x2="646.155" y2="457.484" gradientUnits="userSpaceOnUse">
<stop stop-color="#BBBBBB"/>
<stop offset="1" stop-color="#666666"/>
</linearGradient>
</defs>
</svg>
