<?xml version="1.0" encoding="utf-8"?>
<!-- Generator: Adobe Illustrator 25.2.1, SVG Export Plug-In . SVG Version: 6.00 Build 0)  -->
<svg version="1.1" xmlns="http://www.w3.org/2000/svg" xmlns:xlink="http://www.w3.org/1999/xlink" x="0px" y="0px"
	 viewBox="0 0 1000 1000" style="enable-background:new 0 0 1000 1000;" xml:space="preserve">
	<g id="expression">
		<g>
			<path d="M458.84,419.97c-3.47,0-6.99-0.26-10.45-0.77c-29.97-4.44-53.76-27.43-59.21-57.21c-0.89-4.89,0.42-9.89,3.62-13.72
				c3.26-3.91,8.03-6.16,13.07-6.16c0.84,0,1.7,0.06,2.54,0.19l100.53,14.9c5.51,0.82,10.13,4.13,12.68,9.09
				c2.51,4.89,2.52,10.47,0.02,15.32C509.47,405.27,485.4,419.97,458.84,419.97z"/>
			<path d="M405.87,341.61v1c0.82,0,1.65,0.06,2.47,0.18l100.53,14.9c5.35,0.79,9.83,4.01,12.3,8.83c2.43,4.74,2.44,10.16,0.02,14.86
				c-5.85,11.37-14.72,20.94-25.67,27.68c-11.06,6.81-23.75,10.41-36.69,10.41c-3.45,0-6.94-0.26-10.38-0.77
				c-29.75-4.41-53.38-27.24-58.79-56.81c-0.87-4.74,0.41-9.59,3.51-13.3c3.17-3.8,7.79-5.98,12.69-5.98L405.87,341.61
				M405.87,341.61c-10.61,0-19.16,9.63-17.18,20.46c5.33,29.16,28.67,53.03,59.62,57.62c3.54,0.52,7.05,0.78,10.53,0.78
				c26.91,0,51.23-15.28,63.24-38.63c5.45-10.59-1.29-23.39-13.07-25.14l-100.53-14.9C407.6,341.67,406.73,341.61,405.87,341.61
				L405.87,341.61z"/>
		</g>
		<path class="st6" d="M472.82,465.5h35.95c4.81,0,9.05,3.14,10.46,7.73l9.9,32.23c3.06,9.97-8.23,18.16-16.76,12.17l-6.41-9.97
			c-5.45-8.49-13.79-14.72-23.47-17.57l-15.97-4.69C457.78,479.25,462.13,465.5,472.82,465.5z"/>
		<g>
			<path d="M647.72,521.66c-19,0-36.86-7.4-50.3-20.83c-21.55-21.55-26.99-54.39-13.54-81.71c2.85-5.8,8.69-9.4,15.23-9.4
				c4.57,0,8.87,1.78,12.11,5.02l72.29,72.29c3.96,3.96,5.71,9.41,4.79,14.95c-0.9,5.45-4.24,9.97-9.17,12.39
				C669.44,519.14,658.58,521.66,647.72,521.66z"/>
			<path d="M599.1,409.21v1c4.44,0,8.61,1.73,11.76,4.88l72.29,72.29c3.85,3.85,5.54,9.14,4.65,14.51c-0.88,5.29-4.12,9.67-8.9,12.03
				c-9.62,4.74-20.41,7.24-31.19,7.24c-18.87,0-36.6-7.35-49.94-20.69c-21.4-21.4-26.8-54-13.45-81.14
				c2.77-5.63,8.43-9.12,14.78-9.12L599.1,409.21 M599.1,409.21c-6.33,0-12.57,3.37-15.68,9.68c-13.17,26.76-8.62,60.03,13.64,82.29
				c13.99,13.99,32.32,20.98,50.65,20.98c10.84,0,21.69-2.45,31.64-7.34c10.75-5.29,12.98-19.67,4.51-28.14l-72.29-72.29
				C608.07,410.88,603.56,409.21,599.1,409.21L599.1,409.21z"/>
		</g>
	</g>
</svg>
