<?xml version="1.0" encoding="utf-8"?>
<!-- Generator: Adobe Illustrator 25.2.1, SVG Export Plug-In . SVG Version: 6.00 Build 0)  -->
<svg version="1.1" xmlns="http://www.w3.org/2000/svg" xmlns:xlink="http://www.w3.org/1999/xlink" x="0px" y="0px"
	 viewBox="0 0 1000 1000" style="enable-background:new 0 0 1000 1000;" xml:space="preserve">
	<g id="expression">
		<g>
			<path d="M482.75,434.63c-22.95,0-44.56-11.17-57.79-29.89c-17.49-24.73-17.31-57.82,0.46-82.33c3.18-4.38,8.13-6.9,13.58-6.9
				c5.54,0,10.75,2.69,13.94,7.2l58.68,82.98c3.21,4.55,4.01,10.18,2.18,15.45c-1.8,5.19-5.83,9.05-11.06,10.6
				C496.26,433.66,489.54,434.63,482.75,434.63z"/>
			<path d="M439.01,316.01L439.01,316.01c5.45,0,10.39,2.55,13.53,6.99l58.68,82.98c3.12,4.41,3.89,9.88,2.12,14.99
				c-1.75,5.03-5.66,8.78-10.73,10.28c-6.43,1.9-13.11,2.87-19.85,2.87c-22.79,0-44.24-11.09-57.38-29.67
				c-17.37-24.56-17.18-57.41,0.46-81.75C428.92,318.45,433.72,316.01,439.01,316.01 M439.01,315.01c-5.28,0-10.54,2.35-13.98,7.11
				c-17.4,24-18.54,57.36-0.47,82.91c13.88,19.62,35.87,30.1,58.2,30.1c6.75,0,13.53-0.96,20.13-2.91
				c11.42-3.38,16.02-17.09,9.15-26.81l-58.68-82.98C449.87,317.5,444.43,315.01,439.01,315.01L439.01,315.01z"/>
		</g>
		<path class="st6" d="M472.91,465.5h35.95c4.81,0,9.05,3.14,10.46,7.73l9.9,32.23c3.06,9.97-8.23,18.16-16.76,12.17l-6.41-9.97
			c-5.45-8.49-13.79-14.72-23.47-17.57l-15.97-4.69C457.87,479.25,462.22,465.5,472.91,465.5z"/>
		<g>
			<path d="M624.23,511.21c-1.13,0-2.28-0.03-3.42-0.08c-30.44-1.44-56.56-22.07-65-51.33c-1.48-5.12-0.47-10.51,2.75-14.8
				c3.28-4.36,8.27-6.86,13.69-6.86c0.28,0,0.55,0.01,0.83,0.02l102.12,4.83c5.6,0.26,10.55,3.12,13.6,7.83
				c3,4.64,3.57,10.23,1.56,15.34C679.76,493.11,653.18,511.21,624.23,511.21z"/>
			<path d="M572.26,437.64v1c0.27,0,0.54,0.01,0.81,0.02l102.12,4.83c5.43,0.26,10.25,3.03,13.21,7.6c2.91,4.5,3.46,9.93,1.51,14.88
				c-5.15,13.07-14.01,24.22-25.64,32.25c-11.82,8.17-25.67,12.48-40.04,12.48c-1.12,0-2.27-0.03-3.39-0.08
				c-30.23-1.43-56.17-21.91-64.55-50.97c-1.43-4.97-0.46-10.2,2.67-14.36c3.18-4.23,8.03-6.66,13.3-6.66L572.26,437.64
				M572.26,437.64c-11.54,0-20.16,11.06-16.92,22.29c8.26,28.65,34.01,50.2,65.46,51.69c1.15,0.05,2.3,0.08,3.44,0.08
				c30.01,0,56.08-18.64,66.61-45.37c4.39-11.14-3.64-23.29-15.6-23.85l-102.12-4.83C572.83,437.65,572.54,437.64,572.26,437.64
				L572.26,437.64z"/>
		</g>
	</g>
</svg>
