<?xml version="1.0" encoding="utf-8"?>
<!-- Generator: Adobe Illustrator 25.2.1, SVG Export Plug-In . SVG Version: 6.00 Build 0)  -->
<svg version="1.1" xmlns="http://www.w3.org/2000/svg" xmlns:xlink="http://www.w3.org/1999/xlink" x="0px" y="0px"
	 viewBox="0 0 1000 1000" style="enable-background:new 0 0 1000 1000;" xml:space="preserve">
	<g id="expression">
		<g>
			<circle cx="443" cy="353" r="56.5"/>
			<path d="M443,297c30.88,0,56,25.12,56,56s-25.12,56-56,56s-56-25.12-56-56S412.12,297,443,297 M443,296c-31.48,0-57,25.52-57,57
				s25.52,57,57,57s57-25.52,57-57S474.48,296,443,296L443,296z"/>
		</g>
		<g>
			<circle cx="552" cy="417" r="56.5"/>
			<path d="M552,361c30.88,0,56,25.12,56,56s-25.12,56-56,56s-56-25.12-56-56S521.12,361,552,361 M552,360c-31.48,0-57,25.52-57,57
				s25.52,57,57,57s57-25.52,57-57S583.48,360,552,360L552,360z"/>
		</g>
		<path class="st6" d="M534.99,563.15l-90.09-52.01c-9.33-5.38-12.52-17.31-7.14-26.64v0c5.38-9.33,17.31-12.52,26.64-7.14
			l90.09,52.01c9.33,5.38,12.52,17.31,7.14,26.64v0C556.24,565.34,544.32,568.53,534.99,563.15z"/>
		<g>
			<circle cx="664" cy="485" r="56.5"/>
			<path d="M664,429c30.88,0,56,25.12,56,56c0,18.05-4.85,32.04-14.4,41.6c-9.56,9.56-23.55,14.4-41.6,14.4c-30.88,0-56-25.12-56-56
				S633.12,429,664,429 M664,428c-31.48,0-57,25.52-57,57s25.52,57,57,57c36.81,0,57-20.19,57-57C721,453.52,695.48,428,664,428
				L664,428z"/>
		</g>
	</g>
</svg>
