<?xml version="1.0" encoding="utf-8"?>
<!-- Generator: Adobe Illustrator 25.2.1, SVG Export Plug-In . SVG Version: 6.00 Build 0)  -->
<svg version="1.1" xmlns="http://www.w3.org/2000/svg" xmlns:xlink="http://www.w3.org/1999/xlink" x="0px" y="0px"
	 viewBox="0 0 1000 1000" style="enable-background:new 0 0 1000 1000;" xml:space="preserve">
	<g id="expression">
		<g>
			<circle cx="458" cy="357" r="56.5"/>
			<path d="M458,301c30.88,0,56,25.12,56,56s-25.12,56-56,56s-56-25.12-56-56S427.12,301,458,301 M458,300c-31.48,0-57,25.52-57,57
				s25.52,57,57,57s57-25.52,57-57S489.48,300,458,300L458,300z"/>
		</g>
		<g>
			<circle cx="654" cy="467" r="56.5"/>
			<path d="M654,411c30.88,0,56,25.12,56,56s-25.12,56-56,56s-56-25.12-56-56S623.12,411,654,411 M654,410c-31.48,0-57,25.52-57,57
				s25.52,57,57,57s57-25.52,57-57S685.48,410,654,410L654,410z"/>
		</g>
		<path class="st6" d="M554.77,515.29l-103.61-9.23c-10.73-0.96-18.65-10.43-17.69-21.15v0c0.96-10.73,10.43-18.65,21.15-17.69
			l103.61,9.23c10.73,0.96,18.65,10.43,17.69,21.15v0C574.97,508.33,565.5,516.25,554.77,515.29z"/>
	</g>
</svg>
