<?xml version="1.0" encoding="utf-8"?>
<!-- Generator: Adobe Illustrator 25.2.1, SVG Export Plug-In . SVG Version: 6.00 Build 0)  -->
<svg version="1.1" xmlns="http://www.w3.org/2000/svg" xmlns:xlink="http://www.w3.org/1999/xlink" x="0px" y="0px"
	 viewBox="0 0 1000 1000" style="enable-background:new 0 0 1000 1000;" xml:space="preserve">
	<g id="expression">
		<g>
			<ellipse transform="matrix(0.9239 -0.3827 0.3827 0.9239 -104.1171 200.9499)" cx="453.06" cy="362.19" rx="56.5" ry="56.5"/>
			<path d="M453.06,306.19c30.88,0,56,25.12,56,56s-25.12,56-56,56s-56-25.12-56-56S422.19,306.19,453.06,306.19 M453.06,305.19
				c-31.48,0-57,25.52-57,57s25.52,57,57,57s57-25.52,57-57S484.54,305.19,453.06,305.19L453.06,305.19z"/>
		</g>
		<g>
			<circle cx="649" cy="478" r="56.5"/>
			<path d="M649,422c30.88,0,56,25.12,56,56s-25.12,56-56,56s-56-25.12-56-56S618.12,422,649,422 M649,421c-31.48,0-57,25.52-57,57
				s25.52,57,57,57s57-25.52,57-57S680.48,421,649,421L649,421z"/>
		</g>
		<path class="st6" d="M533.85,479.77l-34.32-22.17c-11.86-7.66-27.68-4.26-35.34,7.6l-58.08,89.92c-7.66,11.86-4.26,27.68,7.6,35.34
			l34.32,22.17c11.86,7.66,27.68,4.26,35.34-7.6l58.08-89.92C549.11,503.25,545.7,487.43,533.85,479.77z"/>
	</g>
</svg>
