<?xml version="1.0" encoding="utf-8"?>
<!-- Generator: Adobe Illustrator 25.2.1, SVG Export Plug-In . SVG Version: 6.00 Build 0)  -->
<svg version="1.1" xmlns="http://www.w3.org/2000/svg" xmlns:xlink="http://www.w3.org/1999/xlink" x="0px" y="0px"
	 viewBox="0 0 1000 1000" style="enable-background:new 0 0 1000 1000;" xml:space="preserve">
	<g id="expression">
		<g>
			<circle cx="560" cy="382" r="56.5"/>
			<path d="M560,326c30.88,0,56,25.12,56,56s-25.12,56-56,56s-56-25.12-56-56S529.12,326,560,326 M560,325c-31.48,0-57,25.52-57,57
				s25.52,57,57,57s57-25.52,57-57S591.48,325,560,325L560,325z"/>
		</g>
		<path class="st6" d="M461.35,448.8l98.23,54.61c13.92,7.74,8.42,28.92-7.5,28.92h-40.2c-24.71,0-47.3-13.98-58.33-36.09
			l-13.5-27.07C433.27,455.6,448.09,441.43,461.35,448.8z"/>
	</g>
</svg>
