<?xml version="1.0" encoding="utf-8"?>
<!-- Generator: Adobe Illustrator 25.2.1, SVG Export Plug-In . SVG Version: 6.00 Build 0)  -->
<svg version="1.1" xmlns="http://www.w3.org/2000/svg" xmlns:xlink="http://www.w3.org/1999/xlink" x="0px" y="0px"
	 viewBox="0 0 1000 1000" style="enable-background:new 0 0 1000 1000;" xml:space="preserve">
	<g id="expression">
		<g>
			<circle cx="449" cy="368" r="56.5"/>
			<path d="M449,312c30.88,0,56,25.12,56,56s-25.12,56-56,56s-56-25.12-56-56S418.12,312,449,312 M449,311c-31.48,0-57,25.52-57,57
				s25.52,57,57,57s57-25.52,57-57S480.48,311,449,311L449,311z"/>
		</g>
		<g>
			<circle cx="645" cy="471" r="56.5"/>
			<path d="M645,415c30.88,0,56,25.12,56,56s-25.12,56-56,56c-30.88,0-56-25.12-56-56S614.12,415,645,415 M645,414
				c-31.48,0-57,25.52-57,57s25.52,57,57,57s57-25.52,57-57S676.48,414,645,414L645,414z"/>
		</g>
		<path class="st6" d="M444.82,470.97l98.23,54.61c13.92,7.74,8.42,28.92-7.5,28.92h-40.2c-24.71,0-47.3-13.98-58.33-36.09
			l-13.5-27.07C416.74,477.77,431.56,463.6,444.82,470.97z"/>
	</g>
</svg>
