<?xml version="1.0" encoding="utf-8"?>
<!-- Generator: Adobe Illustrator 25.2.1, SVG Export Plug-In . SVG Version: 6.00 Build 0)  -->
<svg version="1.1" xmlns="http://www.w3.org/2000/svg" xmlns:xlink="http://www.w3.org/1999/xlink" x="0px" y="0px"
	 viewBox="0 0 1000 1000" style="enable-background:new 0 0 1000 1000;" xml:space="preserve">
	<g id="expression">
		<g>
			<path d="M497.23,420.59c-2.84,0-5.56-0.69-8.09-2.06l-89.39-48.36c-4.9-2.65-8.11-7.34-8.8-12.88c-0.69-5.45,1.21-10.7,5.22-14.41
				c13.11-12.13,30.19-18.81,48.1-18.81c11.65,0,23.27,2.95,33.58,8.53c26.64,14.42,41.15,44.15,36.09,74
				C512.57,414.71,505.54,420.59,497.23,420.59z"/>
			<path d="M444.28,323.57v1h0c11.57,0,23.1,2.93,33.34,8.47c26.46,14.31,40.85,43.84,35.83,73.48c-1.33,7.86-8.15,13.57-16.22,13.57
				c-2.75,0-5.39-0.67-7.85-2L400,369.73c-4.75-2.57-7.87-7.13-8.55-12.5c-0.67-5.29,1.18-10.38,5.06-13.98
				c13.01-12.05,29.98-18.68,47.77-18.68L444.28,323.57 M444.28,323.57c-17.8,0-35.2,6.69-48.44,18.95
				c-8.74,8.09-6.78,22.43,3.69,28.09l89.39,48.36c2.68,1.45,5.53,2.12,8.33,2.12c8.11,0,15.73-5.67,17.21-14.4
				c4.95-29.23-8.82-59.63-36.34-74.53C467.33,326.33,455.72,323.57,444.28,323.57L444.28,323.57z"/>
		</g>
		<g>
			<path d="M671.16,521.15c-3.12,0-6.2-0.87-8.9-2.52l-87.27-53.26c-4.78-2.92-7.76-7.8-8.17-13.4c-0.41-5.51,1.78-10.69,6-14.2
				c12.75-10.63,28.95-16.48,45.62-16.48c13.02,0,25.81,3.6,36.99,10.42c26.01,15.88,39.03,46.51,32.38,76.23
				C686.06,515.72,679.22,521.15,671.16,521.15z"/>
			<path d="M618.43,420.78v1c12.93,0,25.63,3.58,36.72,10.35c25.83,15.76,38.75,46.18,32.16,75.7c-1.69,7.54-8.33,12.81-16.15,12.81
				c-3.03,0-6.02-0.85-8.64-2.45l-87.27-53.26c-4.64-2.83-7.53-7.58-7.93-13.01c-0.39-5.35,1.73-10.37,5.82-13.78
				c12.66-10.55,28.75-16.37,45.3-16.37L618.43,420.78 M618.43,420.78c-16.62,0-32.96,5.78-45.94,16.6
				c-9.2,7.67-7.99,22.17,2.24,28.41l87.27,53.26c2.9,1.77,6.06,2.59,9.16,2.59c7.82,0,15.26-5.23,17.13-13.6
				c6.51-29.1-5.74-60.37-32.61-76.77C644.02,424.17,631.15,420.78,618.43,420.78L618.43,420.78z"/>
		</g>
		<path class="st6" d="M447.03,458.97l98.22,54.61c13.92,7.74,8.42,28.92-7.5,28.92h-40.2c-24.71,0-47.3-13.98-58.33-36.09
			l-13.5-27.07C418.95,465.77,433.78,451.6,447.03,458.97z"/>
	</g>
</svg>
