<?xml version="1.0" encoding="utf-8"?>
<!-- Generator: Adobe Illustrator 25.2.1, SVG Export Plug-In . SVG Version: 6.00 Build 0)  -->
<svg version="1.1" xmlns="http://www.w3.org/2000/svg" xmlns:xlink="http://www.w3.org/1999/xlink" x="0px" y="0px"
	 viewBox="0 0 1000 1000" style="enable-background:new 0 0 1000 1000;" xml:space="preserve">
	<g id="expression">
		<g>
			<circle cx="449" cy="361" r="56.5"/>
			<path d="M449,305c30.88,0,56,25.12,56,56s-25.12,56-56,56s-56-25.12-56-56S418.12,305,449,305 M449,304c-31.48,0-57,25.52-57,57
				s25.52,57,57,57s57-25.52,57-57S480.48,304,449,304L449,304z"/>
		</g>
		<g>
			<circle cx="645" cy="471" r="56.5"/>
			<path d="M645,415c30.88,0,56,25.12,56,56s-25.12,56-56,56s-56-25.12-56-56S614.12,415,645,415 M645,414c-31.48,0-57,25.52-57,57
				s25.52,57,57,57s57-25.52,57-57S676.48,414,645,414L645,414z"/>
		</g>
		<path class="st6" d="M519.99,554.15l-90.09-52.01c-9.33-5.38-12.52-17.31-7.14-26.64v0c5.38-9.33,17.31-12.52,26.64-7.14
			l90.09,52.01c9.33,5.38,12.52,17.31,7.14,26.64v0C541.24,556.34,529.32,559.53,519.99,554.15z"/>
	</g>
</svg>
